<?xml version="1.0" encoding="UTF-8"?>
<svg viewBox="0 0 322.50659 301.41214" xmlns="http://www.w3.org/2000/svg">
 <g transform="translate(-224.74 -354.47)">
  <g transform="matrix(.97054 0 0 .85754 13.925 63.933)">
   <path d="m462.44 560.48c0.018 60.508-49.029 109.57-109.54 109.57s-109.55-49.061-109.54-109.57c-0.018-60.508 49.029-109.57 109.54-109.57s109.55 49.061 109.54 109.57z" fill="#784421" stroke="#000" stroke-linecap="round" stroke-linejoin="round" stroke-width="4"/>
   <path d="m453.82 522.84c0.0768 1.6816 0.125 3.3933 0.125 5.0938 0 60.464-49.067 109.53-109.53 109.53-47.262 0-87.591-29.999-102.94-71.969 2.6535 58.112 50.674 104.47 109.44 104.47 60.464 0 109.53-49.067 109.53-109.53 0-13.202-2.3382-25.87-6.625-37.594z" fill-opacity=".3137"/>
  </g>
  <path d="m251.57 643.19s0.4807-39.609 29.894-31.806c17.235 4.572 53.845 30.703 43.757 34.059-24.776 8.2426-68.998 13.767-73.651-2.253z" fill="#502d16" stroke="#000" stroke-width="4.8481"/>
  <path d="m526.13 545.3c-10.46 10.28-121.91-31.303-107.7-95.611-16.396 34.45-44.816 22.967-44.816 22.967s18.582-50.527 42.63-47.082c3.2792-9.1868 22.954-29.857 28.42-29.857 1.2294 0 14.623 0.0763 30.56 3.3079s34.418 9.6186 45.822 22.24c12.24 13.546 22.19 34.591 23.568 56.583 1.7624 28.12-8.0242 57.172-18.485 67.452z" fill="#784421" stroke="#000" stroke-width="4.8458"/>
  <g transform="translate(33.987 -126.24)">
   <g transform="matrix(-.9848 -.17371 -.17371 .9848 668.33 113.05)">
    <path d="m146.85 503.16c4e-3 12.519-10.144 22.67-22.663 22.67s-22.666-10.151-22.663-22.67 10.144-22.67 22.663-22.67 22.667 10.151 22.663 22.67z" fill="#fff" stroke="#fff" stroke-linecap="round" stroke-linejoin="round" stroke-width="4"/>
    <path d="m133.65 502.43c1e-3 5.4237-4.2413 9.8213-9.4758 9.8213s-9.4773-4.3976-9.4758-9.8213 4.2414-9.8213 9.4758-9.8213 9.4773 4.3976 9.4758 9.8213z" fill="#070707" stroke="#fff" stroke-width="4"/>
    <path d="m151.78 504.25-47.236-18.54s9.1387-18.799 31.7-10.59 15.536 29.13 15.536 29.13z" fill="#784421"/>
   </g>
   <path d="m486.52 637.3c2.2927 3.9731 6.5002 5.8386 9.3968 4.1663s3.3847-6.2489 1.0903-10.221-6.5003-5.8386-9.3968-4.1663-3.3847 6.2489-1.0903 10.221z"/>
   <path d="m444.99 536.41c-15.053-54.104-50.987 3.841-61.29-6.338-10.678-10.55-1.8571-39.716-5.5713-46.543s-20.995 41.029-13.928 58.954c6.9197 17.551 36.227 16.055 55.428 15.878 10.84-0.0942 27.66-12.554 25.362-21.951z" fill="#502d16" fill-rule="evenodd" stroke="#000" stroke-width="4.2941"/>
   <path d="m388.44 563.44 1.875 2.6562c-0.24888 3.0755-0.34375 6.2026-0.34375 9.375 0 45.174 56.912 82.999 83.217 87.67 19.333 3.4332 17.968 7.3183 32.934-25.52-7.6158 40.246-8.0602 32.876-31.763 32.876-26.717 0-89.2-35.07-89.2-80.245 0-9.3916 1.0754-18.41 3.2812-26.812z" fill-opacity=".3137"/>
   <path d="m232.49 618.74s-34.958 7.7685-34.958 26.219-5.8264 26.219-5.8264 26.219 21.363-17.479 19.421-27.19 21.363-25.248 21.363-25.248z" fill="#784421" stroke="#000" stroke-width="2.4"/>
  </g>
  <g transform="matrix(1 0 0 1.0668 3.0798 -58.064)" stroke="#000">
   <path d="m432.74 627.9s-44.479 15.652-48.271 30.126 66.131 6.5718 66.131 6.5718 16.484-28.963-17.86-36.698z" fill="#502d16" stroke-width="4.7777"/>
   <path d="m438.86 663.58s3.6587 4.9832 8.514-11.525c3.9231-13.339-0.28442-16.803-0.28442-16.803" fill="none" stroke-width="3.9"/>
  </g>
 </g>
</svg>
